<svg xmlns="http://www.w3.org/2000/svg" viewBox="0 0 512 512" role="img" aria-label="Arista rabbit icon">
  <rect width="512" height="512" rx="90" fill="#1f2229"/>
  <g fill="#f3f4f6" transform="translate(-70,-40) scale(1.2)">
    <path d="M286 218c22-16 45-21 67-13-14 5-25 11-32 23 16-4 31-3 42 5-11 2-21 7-27 18 18 7 35 21 45 40-27-10-52-11-74-1-10 5-18 10-23 20 0-17-6-31-18-41-15-12-34-16-53-11 19-13 45-25 73-40z"/>
    <path d="M327 194c0-23 16-40 40-42-8 12-10 24-7 34 10-14 22-22 37-23-7 10-10 21-10 32 0 12-7 21-17 29-17-13-30-22-43-30z"/>
    <path d="M375 188c2-19 14-33 32-39-5 11-6 21-4 30 8-10 18-16 31-17-6 8-9 17-10 27-1 13-9 23-20 31-10-10-19-19-29-32z"/>
  </g>
</svg>
