<svg xmlns="http://www.w3.org/2000/svg" viewBox="0 0 1200 630" role="img" aria-labelledby="title desc">
  <title id="title">Arista Wellness Center</title>
  <desc id="desc">Open Graph social share image for Arista Wellness Center.</desc>
  <defs>
    <linearGradient id="bg" x1="0" y1="0" x2="1" y2="1">
      <stop offset="0%" stop-color="#16191f"/>
      <stop offset="100%" stop-color="#232831"/>
    </linearGradient>
  </defs>
  <rect width="1200" height="630" fill="url(#bg)"/>
  <g transform="translate(100,-130)">
    <g fill="#9aa0aa">
      <path d="M470 362c22-16 45-21 67-13-14 5-25 11-32 23 16-4 31-3 42 5-11 2-21 7-27 18 18 7 35 21 45 40-27-10-52-11-74-1-10 5-18 10-23 20 0-17-6-31-18-41-15-12-34-16-53-11 19-13 45-25 73-40z"/>
      <path d="M511 338c0-23 16-40 40-42-8 12-10 24-7 34 10-14 22-22 37-23-7 10-10 21-10 32 0 12-7 21-17 29-17-13-30-22-43-30z"/>
      <path d="M559 332c2-19 14-33 32-39-5 11-6 21-4 30 8-10 18-16 31-17-6 8-9 17-10 27-1 13-9 23-20 31-10-10-19-19-29-32z"/>
    </g>
    <g fill="#f3f4f6">
      <text x="540" y="700" text-anchor="middle" font-family="Oswald, Arial, sans-serif" font-size="230" font-style="italic" font-weight="700" letter-spacing="4">ARISTA</text>
      <text x="540" y="790" text-anchor="middle" font-family="Oswald, Arial, sans-serif" font-size="95" font-style="italic" font-weight="600" letter-spacing="1.5">WELLNESS CENTER</text>
    </g>
  </g>
</svg>
